<mxfile host="app.diagrams.net" agent="Mozilla/5.0 (Macintosh; Intel Mac OS X 10_15_7) AppleWebKit/537.36 (KHTML, like Gecko) Chrome/128.0.0.0 Safari/537.36" version="24.7.14">
  <diagram name="Page-1" id="w3nEUvxMJf7GmxIXHxUg">
    <mxGraphModel dx="1026" dy="650" grid="1" gridSize="10" guides="1" tooltips="1" connect="1" arrows="1" fold="1" page="1" pageScale="1" pageWidth="827" pageHeight="1169" math="0" shadow="0">
      <root>
        <mxCell id="0" />
        <mxCell id="1" parent="0" />
        <mxCell id="nGJrXAePtixMJo7Ur1Bc-3" value="" style="rounded=0;orthogonalLoop=1;jettySize=auto;html=1;exitX=1;exitY=0.5;exitDx=0;exitDy=0;entryX=0;entryY=0.5;entryDx=0;entryDy=0;fontFamily=Times New Roman;fontStyle=1;fontSize=18;fillColor=#ffe6cc;strokeColor=#d79b00;strokeWidth=2;" edge="1" parent="1" source="nGJrXAePtixMJo7Ur1Bc-1" target="nGJrXAePtixMJo7Ur1Bc-2">
          <mxGeometry relative="1" as="geometry" />
        </mxCell>
        <mxCell id="nGJrXAePtixMJo7Ur1Bc-5" value="" style="edgeStyle=orthogonalEdgeStyle;rounded=0;orthogonalLoop=1;jettySize=auto;html=1;fontFamily=Times New Roman;fontStyle=1;fontSize=18;fillColor=#ffe6cc;strokeColor=#d79b00;strokeWidth=2;" edge="1" parent="1" source="nGJrXAePtixMJo7Ur1Bc-1" target="nGJrXAePtixMJo7Ur1Bc-4">
          <mxGeometry relative="1" as="geometry" />
        </mxCell>
        <mxCell id="nGJrXAePtixMJo7Ur1Bc-6" value="" style="edgeStyle=orthogonalEdgeStyle;rounded=0;orthogonalLoop=1;jettySize=auto;html=1;fontFamily=Times New Roman;fontStyle=1;fontSize=18;fillColor=#ffe6cc;strokeColor=#d79b00;strokeWidth=2;" edge="1" parent="1" source="nGJrXAePtixMJo7Ur1Bc-1" target="nGJrXAePtixMJo7Ur1Bc-4">
          <mxGeometry relative="1" as="geometry" />
        </mxCell>
        <mxCell id="nGJrXAePtixMJo7Ur1Bc-8" value="" style="edgeStyle=orthogonalEdgeStyle;rounded=0;orthogonalLoop=1;jettySize=auto;html=1;fontFamily=Times New Roman;fontStyle=1;fontSize=18;fillColor=#ffe6cc;strokeColor=#d79b00;strokeWidth=2;" edge="1" parent="1" source="nGJrXAePtixMJo7Ur1Bc-1" target="nGJrXAePtixMJo7Ur1Bc-4">
          <mxGeometry relative="1" as="geometry" />
        </mxCell>
        <mxCell id="nGJrXAePtixMJo7Ur1Bc-10" value="" style="rounded=0;orthogonalLoop=1;jettySize=auto;html=1;exitX=1;exitY=0.5;exitDx=0;exitDy=0;entryX=0;entryY=0.5;entryDx=0;entryDy=0;fontFamily=Times New Roman;fontStyle=1;fontSize=18;fillColor=#ffe6cc;strokeColor=#d79b00;strokeWidth=2;" edge="1" parent="1" source="nGJrXAePtixMJo7Ur1Bc-1" target="nGJrXAePtixMJo7Ur1Bc-9">
          <mxGeometry relative="1" as="geometry" />
        </mxCell>
        <mxCell id="nGJrXAePtixMJo7Ur1Bc-1" value="Construct&lt;br style=&quot;font-size: 18px;&quot;&gt;Validity" style="rounded=1;whiteSpace=wrap;html=1;fontFamily=Times New Roman;fontStyle=1;fontSize=18;fillColor=#fad7ac;strokeColor=#b46504;strokeWidth=2;" vertex="1" parent="1">
          <mxGeometry x="60" y="160" width="120" height="60" as="geometry" />
        </mxCell>
        <mxCell id="nGJrXAePtixMJo7Ur1Bc-15" value="" style="edgeStyle=orthogonalEdgeStyle;rounded=0;orthogonalLoop=1;jettySize=auto;html=1;fillColor=#f5f5f5;strokeColor=#666666;strokeWidth=2;" edge="1" parent="1" source="nGJrXAePtixMJo7Ur1Bc-2" target="nGJrXAePtixMJo7Ur1Bc-14">
          <mxGeometry relative="1" as="geometry" />
        </mxCell>
        <mxCell id="nGJrXAePtixMJo7Ur1Bc-2" value="Convergent" style="whiteSpace=wrap;html=1;rounded=1;fontFamily=Times New Roman;fontStyle=1;fontSize=18;fillColor=#fff2cc;strokeColor=#d6b656;strokeWidth=2;" vertex="1" parent="1">
          <mxGeometry x="320" y="80" width="120" height="60" as="geometry" />
        </mxCell>
        <mxCell id="nGJrXAePtixMJo7Ur1Bc-17" value="" style="edgeStyle=orthogonalEdgeStyle;rounded=0;orthogonalLoop=1;jettySize=auto;html=1;fillColor=#f5f5f5;strokeColor=#666666;strokeWidth=2;" edge="1" parent="1" source="nGJrXAePtixMJo7Ur1Bc-4" target="nGJrXAePtixMJo7Ur1Bc-16">
          <mxGeometry relative="1" as="geometry" />
        </mxCell>
        <mxCell id="nGJrXAePtixMJo7Ur1Bc-4" value="&lt;p style=&quot;margin: 0px; font-variant-numeric: normal; font-variant-east-asian: normal; font-variant-alternates: normal; font-size-adjust: none; font-kerning: auto; font-optical-sizing: auto; font-feature-settings: normal; font-variation-settings: normal; font-variant-position: normal; font-stretch: normal; font-size: 18px; line-height: normal; text-align: start;&quot; class=&quot;p1&quot;&gt;&lt;span style=&quot;font-size: 18px;&quot;&gt;Discriminant&lt;/span&gt;&lt;/p&gt;" style="whiteSpace=wrap;html=1;rounded=1;fontFamily=Times New Roman;fontStyle=1;fontSize=18;fillColor=#fff2cc;strokeColor=#d6b656;strokeWidth=2;" vertex="1" parent="1">
          <mxGeometry x="320" y="160" width="120" height="60" as="geometry" />
        </mxCell>
        <mxCell id="nGJrXAePtixMJo7Ur1Bc-19" value="" style="edgeStyle=orthogonalEdgeStyle;rounded=0;orthogonalLoop=1;jettySize=auto;html=1;fillColor=#f5f5f5;strokeColor=#666666;strokeWidth=2;" edge="1" parent="1" source="nGJrXAePtixMJo7Ur1Bc-9" target="nGJrXAePtixMJo7Ur1Bc-18">
          <mxGeometry relative="1" as="geometry" />
        </mxCell>
        <mxCell id="nGJrXAePtixMJo7Ur1Bc-9" value="&lt;p style=&quot;margin: 0px; font-variant-numeric: normal; font-variant-east-asian: normal; font-variant-alternates: normal; font-size-adjust: none; font-kerning: auto; font-optical-sizing: auto; font-feature-settings: normal; font-variation-settings: normal; font-variant-position: normal; font-stretch: normal; font-size: 18px; line-height: normal; text-align: start;&quot; class=&quot;p1&quot;&gt;&lt;span style=&quot;font-size: 18px;&quot;&gt;Nomological&lt;/span&gt;&lt;/p&gt;" style="whiteSpace=wrap;html=1;rounded=1;fontFamily=Times New Roman;fontStyle=1;fontSize=18;fillColor=#fff2cc;strokeColor=#d6b656;strokeWidth=2;" vertex="1" parent="1">
          <mxGeometry x="320" y="240" width="120" height="60" as="geometry" />
        </mxCell>
        <mxCell id="nGJrXAePtixMJo7Ur1Bc-13" value="Reliability" style="rounded=1;whiteSpace=wrap;html=1;fontFamily=Times New Roman;fontStyle=1;fontSize=18;fillColor=#ffe6cc;strokeColor=#d79b00;strokeWidth=2;" vertex="1" parent="1">
          <mxGeometry x="60" y="360" width="120" height="60" as="geometry" />
        </mxCell>
        <mxCell id="nGJrXAePtixMJo7Ur1Bc-14" value="&lt;p class=&quot;p1&quot; style=&quot;margin: 0px; font-variant-numeric: normal; font-variant-east-asian: normal; font-variant-alternates: normal; font-size-adjust: none; font-kerning: auto; font-optical-sizing: auto; font-feature-settings: normal; font-variation-settings: normal; font-variant-position: normal; font-stretch: normal; font-size: 16px; line-height: normal; font-family: Helvetica;&quot;&gt;&lt;span style=&quot;font-size: 16px;&quot;&gt;Construct Reliability (CR)&lt;br style=&quot;font-size: 16px;&quot;&gt;&lt;/span&gt;&lt;/p&gt;&lt;p class=&quot;p1&quot; style=&quot;margin: 0px; font-variant-numeric: normal; font-variant-east-asian: normal; font-variant-alternates: normal; font-size-adjust: none; font-kerning: auto; font-optical-sizing: auto; font-feature-settings: normal; font-variation-settings: normal; font-variant-position: normal; font-stretch: normal; font-size: 16px; line-height: normal; font-family: Helvetica;&quot;&gt;&lt;span style=&quot;font-size: 16px;&quot;&gt;Average Variance&amp;nbsp;&lt;/span&gt;&lt;span style=&quot;background-color: initial; font-size: 16px;&quot;&gt;Extracted (AVE)&lt;/span&gt;&lt;/p&gt;" style="whiteSpace=wrap;html=1;fontSize=16;fontFamily=Times New Roman;fillColor=#f5f5f5;strokeColor=#666666;rounded=1;fontStyle=0;strokeWidth=2;align=center;fontColor=#333333;" vertex="1" parent="1">
          <mxGeometry x="510" y="80" width="260" height="60" as="geometry" />
        </mxCell>
        <mxCell id="nGJrXAePtixMJo7Ur1Bc-16" value="&lt;p style=&quot;margin: 0px; font-variant-numeric: normal; font-variant-east-asian: normal; font-variant-alternates: normal; font-size-adjust: none; font-kerning: auto; font-optical-sizing: auto; font-feature-settings: normal; font-variation-settings: normal; font-variant-position: normal; font-weight: 400; font-stretch: normal; font-size: 16px; line-height: normal; font-family: Helvetica;&quot; class=&quot;p1&quot;&gt;&lt;span style=&quot;font-size: 16px;&quot;&gt;Squared inter-construct Correlation&amp;nbsp;&lt;/span&gt;&lt;span style=&quot;background-color: initial; font-size: 16px;&quot;&gt;estimates (SIC)&lt;/span&gt;&lt;/p&gt;" style="whiteSpace=wrap;html=1;fontSize=16;fontFamily=Times New Roman;fillColor=#f5f5f5;strokeColor=#666666;rounded=1;fontStyle=1;strokeWidth=2;align=center;fontColor=#333333;" vertex="1" parent="1">
          <mxGeometry x="510" y="160" width="260" height="60" as="geometry" />
        </mxCell>
        <mxCell id="nGJrXAePtixMJo7Ur1Bc-18" value="&lt;p style=&quot;margin: 0px; font-variant-numeric: normal; font-variant-east-asian: normal; font-variant-alternates: normal; font-size-adjust: none; font-kerning: auto; font-optical-sizing: auto; font-feature-settings: normal; font-variation-settings: normal; font-variant-position: normal; font-weight: 400; font-stretch: normal; font-size: 16px; line-height: normal; font-family: Helvetica;&quot; class=&quot;p1&quot;&gt;&lt;span style=&quot;font-size: 16px;&quot;&gt;Covariance matrix&amp;nbsp;&lt;/span&gt;&lt;/p&gt;" style="whiteSpace=wrap;html=1;fontSize=16;fontFamily=Times New Roman;fillColor=#f5f5f5;strokeColor=#666666;rounded=1;fontStyle=1;strokeWidth=2;align=center;fontColor=#333333;" vertex="1" parent="1">
          <mxGeometry x="510" y="240" width="260" height="60" as="geometry" />
        </mxCell>
      </root>
    </mxGraphModel>
  </diagram>
</mxfile>
